<?xml version="1.0" encoding="utf-8"?>
<!-- Generator: Adobe Illustrator 23.0.3, SVG Export Plug-In . SVG Version: 6.00 Build 0)  -->
<svg version="1.1" id="Camada_1" xmlns="http://www.w3.org/2000/svg" xmlns:xlink="http://www.w3.org/1999/xlink" x="0px" y="0px"
	 viewBox="0 0 313.7 84.3" style="enable-background:new 0 0 313.7 84.3;" xml:space="preserve">
<style type="text/css">
	.st0{fill:#FFFFFF;}
</style>
<g>
	<path class="st0" d="M57.1,60.2h-8.2V46.9H34.8v13.3h-8.3V26.7h8.3v13.1h14.1V26.7h8.2V60.2z"/>
	<path class="st0" d="M89,47.6c0,8-6.3,13.3-13.8,13.3c-7.6,0-13.9-5.3-13.9-13.3c0-7.9,6.3-13.2,13.9-13.2
		C82.7,34.4,89,39.7,89,47.6z M81.3,47.6c0-3.9-3-6.5-6.1-6.5c-3.3,0-6.2,2.6-6.2,6.5c0,4,3,6.5,6.2,6.5
		C78.3,54.1,81.3,51.6,81.3,47.6z"/>
	<path class="st0" d="M99.2,52c0.4,2.1,2.3,3,4.5,3c2.1,0,3.3-0.9,3.3-2c0-0.8-0.7-1.5-2.5-1.9l-5.1-1c-4.7-0.9-7.3-3.4-7.3-7.3
		c0-5.2,4.5-8.5,10.8-8.5c6.3,0,10.4,2.9,11.4,7.2l-7.3,1.5c-0.3-1.5-1.8-3-4.2-3c-2.2,0-2.9,1.1-2.9,2c0,0.7,0.3,1.4,1.9,1.8
		l5.9,1.2c4.8,1,7,3.9,7,7.6c0,5.6-4.8,8.5-11.4,8.5c-5.9,0-11-2.1-11.8-7.3L99.2,52z"/>
	<path class="st0" d="M137.5,59.1c-2,1.1-4,1.9-6.9,1.9c-6.3,0-10-3.4-10-10v-9.5h-4.6v-6.4h4.6v-8.4h8v8.4h7.4v6.4h-7.4v8.7
		c0,2.6,1.3,3.7,3.4,3.7c1.1,0,2.6-0.4,3.7-1L137.5,59.1z"/>
	<path class="st0" d="M174.6,40.4c0.1,1.2,0.2,2.2,0.2,3c0,10.2-7.3,17.5-17.4,17.5c-10.2,0-18.1-7.7-18.1-17.5
		c0-9.8,7.9-17.5,17.9-17.5c7.5,0,14,3.5,16.4,10.1l-8,2.3c-2-3.8-5.2-4.8-8.4-4.8c-5.5,0-9.6,4.3-9.6,10c0,5.7,4.3,10,9.9,10
		c4.4,0,7.6-2.3,8.9-6h-10.3v-7H174.6z"/>
	<path class="st0" d="M202.2,44.3v15.9h-7.7v-1.9c-1.8,1.5-4.1,2.6-7.5,2.6c-5.6,0-9.4-3.3-9.4-8.2c0-4.9,3.8-8.1,10.5-8.1h6.4v-0.5
		c0-2.1-1.5-3.5-3.6-3.5c-2.4,0-3.8,1-4.2,3.2l-7.6-1.6c1.1-4.9,5.5-7.9,11.5-7.9C197.8,34.3,202.2,37.9,202.2,44.3z M194.5,50.3
		v-0.6H189c-2,0-3.3,1.1-3.3,2.6c0,1.6,1.4,2.6,3.5,2.6C192,54.9,194.5,53.1,194.5,50.3z"/>
	<path class="st0" d="M225.8,59.1c-2,1.1-4,1.9-6.9,1.9c-6.3,0-10-3.4-10-10v-9.5h-4.6v-6.4h4.6v-8.4h8v8.4h7.4v6.4H217v8.7
		c0,2.6,1.3,3.7,3.4,3.7c1.1,0,2.6-0.4,3.7-1L225.8,59.1z"/>
	<path class="st0" d="M254.4,47.6c0,8-6.3,13.3-13.8,13.3c-7.6,0-13.9-5.3-13.9-13.3c0-7.9,6.3-13.2,13.9-13.2
		C248.1,34.4,254.4,39.7,254.4,47.6z M246.7,47.6c0-3.9-3-6.5-6.1-6.5c-3.3,0-6.2,2.6-6.2,6.5c0,4,3,6.5,6.2,6.5
		C243.7,54.1,246.7,51.6,246.7,47.6z"/>
	<path class="st0" d="M264.6,52c0.4,2.1,2.3,3,4.5,3c2.1,0,3.3-0.9,3.3-2c0-0.8-0.7-1.5-2.5-1.9l-5.1-1c-4.7-0.9-7.3-3.4-7.3-7.3
		c0-5.2,4.5-8.5,10.8-8.5c6.3,0,10.4,2.9,11.4,7.2l-7.3,1.5c-0.3-1.5-1.8-3-4.2-3c-2.2,0-2.9,1.1-2.9,2c0,0.7,0.3,1.4,1.9,1.8
		l5.9,1.2c4.8,1,7,3.9,7,7.6c0,5.6-4.8,8.5-11.4,8.5c-5.9,0-11-2.1-11.8-7.3L264.6,52z"/>
</g>
</svg>
